HIERARCHY
ROOT RootJoint
{
    OFFSET   0.000000   0.000000   0.000000
    CHANNELS 6 Xposition Yposition Zposition Xrotation Yrotation Zrotation
    JOINT pelvis_lowerback
    {
        OFFSET   0.000000   0.093605   0.000000
        CHANNELS 3 Xrotation Yrotation Zrotation
        JOINT lowerback_torso
        {
            OFFSET   0.000000   0.100000   0.000000
            CHANNELS 3 Xrotation Yrotation Zrotation
            JOINT torso_head
            {
                OFFSET   0.000000   0.282350   0.000000
                CHANNELS 3 Xrotation Yrotation Zrotation
                End Site
                {
                    OFFSET   0.000000   0.192650   0.000000
                }
            }
            JOINT rTorso_Clavicle
            {
                OFFSET  -0.001000   0.157500   0.000000
                CHANNELS 3 Xrotation Yrotation Zrotation
                JOINT rShoulder
                {
                    OFFSET  -0.117647   0.000000   0.000000
                    CHANNELS 3 Xrotation Yrotation Zrotation
                    JOINT rElbow
                    {
                        OFFSET  -0.245000   0.000000   0.000000
                        CHANNELS 3 Xrotation Yrotation Zrotation
                        JOINT rWrist
                        {
                            OFFSET  -0.240000   0.000000   0.000000
                            CHANNELS 3 Xrotation Yrotation Zrotation
                            End Site
                            {
                                OFFSET  -0.116353  -0.002500   0.000000
                            }
                        }
                    }
                }
            }
            JOINT lTorso_Clavicle
            {
                OFFSET   0.001000   0.157500   0.000000
                CHANNELS 3 Xrotation Yrotation Zrotation
                JOINT lShoulder
                {
                    OFFSET   0.117647   0.000000   0.000000
                    CHANNELS 3 Xrotation Yrotation Zrotation
                    JOINT lElbow
                    {
                        OFFSET   0.245000   0.000000   0.000000
                        CHANNELS 3 Xrotation Yrotation Zrotation
                        JOINT lWrist
                        {
                            OFFSET   0.240000   0.000000   0.000000
                            CHANNELS 3 Xrotation Yrotation Zrotation
                            End Site
                            {
                                OFFSET   0.116353  -0.002500   0.000000
                            }
                        }
                    }
                }
            }
        }
    }
    JOINT rHip
    {
        OFFSET  -0.100000  -0.051395   0.000000
        CHANNELS 3 Xrotation Yrotation Zrotation
        JOINT rKnee
        {
            OFFSET   0.000000  -0.410000   0.000000
            CHANNELS 3 Xrotation Yrotation Zrotation
            JOINT rAnkle
            {
                OFFSET   0.000000  -0.390000   0.000000
                CHANNELS 3 Xrotation Yrotation Zrotation
                JOINT rToeJoint
                {
                    OFFSET   0.000000  -0.050000   0.130000
                    CHANNELS 3 Xrotation Yrotation Zrotation
                    End Site
                    {
                        OFFSET  -0.010000   0.002000   0.060000
                    }
                }
            }
        }
    }
    JOINT lHip
    {
        OFFSET   0.100000  -0.051395   0.000000
        CHANNELS 3 Xrotation Yrotation Zrotation
        JOINT lKnee
        {
            OFFSET   0.000000  -0.410000   0.000000
            CHANNELS 3 Xrotation Yrotation Zrotation
            JOINT lAnkle
            {
                OFFSET   0.000000  -0.390000   0.000000
                CHANNELS 3 Xrotation Yrotation Zrotation
                JOINT lToeJoint
                {
                    OFFSET   0.000000  -0.050000   0.130000
                    CHANNELS 3 Xrotation Yrotation Zrotation
                    End Site
                    {
                        OFFSET   0.010000   0.002000   0.060000
                    }
                }
            }
        }
    }
}
MOTION
Frames: 17
Frame Time:   0.008333
 -2.376719   0.925631   3.975860   0.000000   0.000000   0.000000   0.000000   0.000000   0.000000   0.000000   0.000000   0.000000   0.000000   0.000000   0.000000   0.000000   0.000000   0.000000   0.000000   0.000000   0.000000   0.000000   0.000000   0.000000   0.000000   0.000000   0.000000   0.000000   0.000000   0.000000   0.000000   0.000000   0.000000   0.000000   0.000000   0.000000   0.000000   0.000000   0.000000   0.000000   0.000000   0.000000   0.000000   0.000000   0.000000   0.000000   0.000000   0.000000   0.000000   0.000000   0.000000   0.000000   0.000000   0.000000   0.000000   0.000000   0.000000   0.000000   0.000000   0.000000   0.000000   0.000000   0.000000
 -2.376512   0.926232   3.975991   0.163888   0.047540   0.101151  -0.243153   0.006290  -0.105026   0.088363  -0.118701   0.000820  -0.122914   0.089559   0.010742   0.174415  -0.317288   0.397875   0.583776   0.140209   2.083208   0.014450   0.666167  -0.004509   0.338989  -0.110189  -2.860302   0.219899   0.342759  -0.394233   0.948168  -0.018212  -2.040414   0.015269  -0.715006   0.007406   0.383735   0.049866   2.748175  -0.429342   0.218722  -0.223737   0.871384   0.000949   0.002010  -0.792789  -0.031809   0.042787  -0.122110  -0.000083  -0.000250  -0.312541  -0.358766  -0.057512   0.496998  -0.000198  -0.001351  -0.795688  -0.028860   0.108232   0.285527  -0.000377  -0.000847
 -2.376241   0.927258   3.976364   0.303666   0.124554   0.208613  -0.495790  -0.006907  -0.202821   0.168851  -0.252301   0.000888  -0.235002   0.174297   0.019638   0.347284  -0.646354   1.532658   1.151007   0.284586   4.758488   0.032875   1.300549  -0.007477   0.705757  -0.069402  -4.981632   0.441333   0.682634  -1.522067   1.877921  -0.061462  -4.673828   0.034716  -1.394978   0.012566   0.808333  -0.049029   4.753205  -0.806874   0.436853  -0.532863   1.785144   0.002453   0.003884  -1.532827  -0.061277   0.081960  -0.268101  -0.000271  -0.000536  -0.567785  -0.713772  -0.068315   1.011012  -0.000628  -0.002326  -1.544258  -0.060469   0.207849   0.493639  -0.000664  -0.001239
 -2.375940   0.928289   3.976920   0.439525   0.209895   0.308296  -0.760353  -0.029075  -0.286032   0.225322  -0.388564   0.006543  -0.339985   0.253345   0.028035   0.517442  -0.966835   3.113789   1.700859   0.439545   7.820505   0.050455   1.887814  -0.009117   1.059334  -0.021670  -6.248122   0.657180   1.000564  -3.094583   2.787614  -0.144043  -7.695353   0.053343  -2.027112   0.015800   1.219213  -0.164867   5.911815  -1.141086   0.643396  -0.893383   2.659072   0.004090   0.005183  -2.223040  -0.089969   0.117723  -0.406652  -0.000486  -0.000744  -0.782230  -1.044856  -0.024151   1.504320  -0.001174  -0.002908  -2.243555  -0.090481   0.300530   0.674689  -0.000913  -0.001425
 -2.375656   0.929012   3.977604   0.574953   0.291756   0.400805  -1.031495  -0.054699  -0.361495   0.258741  -0.521844   0.007630  -0.439601   0.327099   0.039590   0.688324  -1.275400   4.949803   2.236118   0.612287  11.145709   0.065203   2.430982  -0.009847   1.394493   0.009656  -6.872283   0.869834   1.298412  -4.950411   3.647579  -0.268919 -10.866544   0.068774  -2.614994   0.017524   1.611874  -0.280764   6.387260  -1.442041   0.838356  -1.289267   3.482244   0.005619   0.005917  -2.867705  -0.117866   0.150427  -0.539982  -0.000702  -0.000879  -0.964610  -1.353131   0.069217   1.971963  -0.001759  -0.003227  -2.896862  -0.118766   0.386907   0.833731  -0.001116  -0.001492
 -2.375429   0.929192   3.978372   0.708698   0.365360   0.487747  -1.304052  -0.080958  -0.436345   0.273922  -0.649206  -0.002578  -0.533764   0.395841   0.053350   0.861665  -1.571450   6.911729   2.757800   0.806619  14.648726   0.076441   2.933443  -0.009984   1.710852   0.023087  -7.056867   1.080498   1.579155  -6.963828   4.443227  -0.430718 -14.030745   0.080146  -3.162125   0.018146   1.985430  -0.396048   6.376604  -1.715371   1.022365  -1.708392   4.254828   0.006913   0.006196  -3.469919  -0.144842   0.180380  -0.667646  -0.000896  -0.000954  -1.119788  -1.640657   0.205038   2.414229  -0.002331  -0.003371  -3.507104  -0.145459   0.467453   0.974281  -0.001272  -0.001487
 -2.375238   0.928644   3.979187   0.838775   0.428487   0.566629  -1.573954  -0.107012  -0.506549   0.275795  -0.770086  -0.009308  -0.622311   0.460004   0.062543   1.039510  -1.855097   8.959345   3.241827   1.015023  18.125249   0.083903   3.398938  -0.009654   2.010449   0.025724  -6.880810   1.289658   1.844563  -9.039240   5.177178  -0.623178 -17.123870   0.087490  -3.671561   0.018040   2.340002  -0.510587   6.049795  -1.964988   1.196129  -2.142136   4.979046   0.007951   0.006138  -4.032415  -0.170714   0.207930  -0.788875  -0.001062  -0.000980  -1.251404  -1.909101   0.375613   2.832228  -0.002838  -0.003398  -4.077049  -0.170603   0.542659   1.098942  -0.001377  -0.001439
 -2.375025   0.926589   3.979577   0.981501   0.423782   0.591947  -1.732041  -0.078743  -0.478752   0.269990  -0.882262  -0.029150  -0.816844   0.431967   0.035023   1.295312  -2.019374  10.402148   3.880495   1.267821  21.230902   0.091002   3.983765  -0.011678   2.254373   0.042547  -5.462482   1.556831   2.112453 -10.301543   5.796418  -0.927387 -20.196888   0.092820  -4.264736   0.018808   2.615931  -0.709380   4.614957  -2.313514   1.228525  -2.469902   5.768032   0.008547   0.004728  -4.481241  -0.243982   0.430900  -0.720022  -0.000798  -0.000820  -1.348552  -2.089309   0.555318   2.844489  -0.002294  -0.002737  -4.356705  -0.267964   0.666985   1.161748  -0.001285  -0.001303
 -2.374799   0.923284   3.979686   1.119617   0.424692   0.606339  -1.827769  -0.051941  -0.435507   0.290985  -0.983777  -0.037241  -1.001459   0.401651   0.008578   1.523268  -2.132345  11.510370   4.455709   1.556362  23.962703   0.092282   4.542225  -0.013185   2.506401   0.138086  -4.190025   1.798104   2.333453 -11.240834   6.353121  -1.252763 -22.906167   0.092570  -4.829001   0.019161   2.884480  -0.982402   3.301388  -2.663934   1.249617  -2.743285   6.504119   0.008578   0.003565  -4.897351  -0.315627   0.638673  -0.640189  -0.000600  -0.000702  -1.489796  -2.258078   0.698778   2.789502  -0.001752  -0.002114  -4.618561  -0.360429   0.782234   1.230367  -0.001196  -0.001193
 -2.374565   0.918877   3.979622   1.247578   0.430818   0.616487  -1.878497  -0.023514  -0.386628   0.336323  -1.074359  -0.036789  -1.168725   0.373155  -0.014830   1.724418  -2.213655  12.382131   4.972034   1.861633  26.393103   0.089848   5.070177  -0.014136   2.752021   0.268321  -3.199023   2.015108   2.521325 -11.953060   6.853939  -1.583337 -25.313329   0.088826  -5.359454   0.019043   3.140503  -1.270362   2.266310  -2.996371   1.270065  -2.973550   7.184949   0.008229   0.002684  -5.285346  -0.383710   0.832242  -0.564005  -0.000459  -0.000602  -1.664400  -2.415703   0.804175   2.712579  -0.001315  -0.001595  -4.863568  -0.447624   0.889088   1.294189  -0.001086  -0.001083
 -2.374294   0.919127   3.979887   1.271883   0.437767   0.732770  -1.891972   0.009496  -0.416553   0.417101  -1.152949  -0.068391  -1.309719   0.346719  -0.039477   1.907767  -2.275376  13.422711   5.436024   2.173282  28.692911   0.086808   5.557393  -0.014335   2.986567   0.354638  -2.492899   2.213402   2.687462 -12.826547   7.303166  -1.914715 -27.578181   0.084704  -5.845879   0.018281   3.382019  -1.478887   1.532840  -3.376401   1.321152  -3.130941   7.950777   0.006969   0.002213  -5.609800  -0.408616   1.155191  -0.615126  -0.000245  -0.000482  -1.849014  -2.527905   0.643979   2.990760  -0.000983  -0.001534  -4.555830  -0.499042   0.938686   1.443728  -0.000883  -0.001078
 -2.374045   0.919388   3.980319   1.310709   0.458944   0.878820  -1.930742   0.041256  -0.454901   0.484029  -1.224594  -0.110058  -1.441869   0.321981  -0.065695   2.085407  -2.342096  14.218800   5.860786   2.478087  30.816060   0.081953   6.019211  -0.014084   3.211087   0.483532  -1.704482   2.406684   2.855004 -13.467337   7.715660  -2.233014 -29.666460   0.078999  -6.306558   0.017133   3.610804  -1.727792   0.718700  -3.684390   1.360520  -3.307637   8.574030   0.005817   0.001862  -5.919986  -0.455595   1.308498  -0.589812  -0.000222  -0.000389  -1.949841  -2.657783   0.452211   3.149746  -0.000741  -0.001385  -4.611677  -0.574756   1.025281   1.547982  -0.000750  -0.001032
 -2.373848   0.919582   3.980767   1.372294   0.503132   1.019127  -1.974132   0.069523  -0.477009   0.536366  -1.291994  -0.145627  -1.570220   0.298782  -0.090314   2.251791  -2.406081  14.859703   6.248375   2.769800  32.729117   0.075908   6.449473  -0.013579   3.424474   0.611097  -1.032095   2.588213   3.013814 -13.969020   8.092517  -2.534430 -31.550790   0.072307  -6.735050   0.015767   3.826729  -1.967839   0.016927  -3.978699   1.394825  -3.473952   9.130809   0.004848   0.001674  -6.211059  -0.505603   1.444394  -0.539824  -0.000223  -0.000311  -2.042544  -2.781981   0.272330   3.247689  -0.000568  -0.001182  -4.698949  -0.647150   1.107209   1.614229  -0.000629  -0.000914
 -2.373757   0.919784   3.981249   1.433249   0.539784   1.112008  -1.964924   0.084740  -0.512278   0.530759  -1.314845  -0.093399  -1.639371   0.223860  -0.139822   2.338068  -2.553125  15.165417   6.563954   3.027518  34.126361   0.068239   6.898953  -0.012526   3.564392   0.806213   0.241494   2.754535   3.201248 -14.141585   8.401560  -2.847666 -33.096860   0.066428  -7.300485   0.014703   4.012676  -2.173366  -1.140813  -4.142187   1.418674  -3.577548   9.423743   0.003932   0.001428  -6.397785  -0.450868   1.523030  -0.414033  -0.000252  -0.000140  -2.065550  -2.861049   0.158742   3.213156  -0.000459  -0.000931  -4.709013  -0.657566   1.173725   1.657607  -0.000521  -0.000752
 -2.373743   0.919975   3.981651   1.524114   0.561773   1.185012  -1.952731   0.102074  -0.540362   0.515896  -1.332099  -0.038713  -1.703561   0.152999  -0.181353   2.399044  -2.677732  15.202621   6.846938   3.270592  35.246070   0.059601   7.322109  -0.011455   3.691063   1.017101   1.248694   2.894275   3.363574 -14.081451   8.678120  -3.142864 -34.380732   0.058982  -7.834681   0.013591   4.185885  -2.417318  -2.068522  -4.304025   1.442732  -3.655783   9.637700   0.003170   0.001190  -6.582456  -0.398073   1.593866  -0.203828  -0.000321   0.000048  -2.100425  -2.931971   0.072582   3.140241  -0.000373  -0.000711  -4.740762  -0.666037   1.236235   1.702721  -0.000437  -0.000625
 -2.373808   0.920149   3.981978   1.632839   0.569441   1.244229  -1.930009   0.119746  -0.565541   0.502048  -1.346808   0.009745  -1.764366   0.087027  -0.217966   2.439851  -2.781076  15.059316   7.102212   3.499840  36.158667   0.050970   7.718498  -0.010418   3.810758   1.217977   1.964163   3.012299   3.503254 -13.863324   8.928026  -3.418065 -35.458555   0.051123  -8.333466   0.012528   4.350055  -2.650462  -2.733704  -4.469444   1.464818  -3.715298   9.807715   0.002545   0.000971  -6.764747  -0.349535   1.660655  -0.010644  -0.000367   0.000155  -2.143286  -2.999007   0.006831   3.045100  -0.000302  -0.000516  -4.787053  -0.674537   1.295702   1.743190  -0.000368  -0.000524
 -2.373949   0.920304   3.982252   1.752852   0.563830   1.292626  -1.895798   0.136632  -0.590971   0.493679  -1.360046   0.050565  -1.820775   0.025532  -0.251487   2.465674  -2.868331  14.796579   7.333995   3.714673  36.912948   0.042888   8.088967  -0.009434   3.924799   1.402903   2.451536   3.113031   3.625515 -13.541235   9.155331  -3.673559 -36.374904   0.043564  -8.798208   0.011546   4.506961  -2.861228  -3.190426  -4.637517   1.484836  -3.759166   9.947509   0.002034   0.000777  -6.940870  -0.305024   1.723938   0.165580  -0.000396   0.000204  -2.191293  -3.062703  -0.041911   2.936602  -0.000240  -0.000343  -4.841916  -0.683138   1.352318   1.779560  -0.000312  -0.000444
